<?xml version="1.0" encoding="UTF-8"?>
<svg xmlns="http://www.w3.org/2000/svg" viewBox="0 0 64 64" width="512" height="512"><g id="Outlines"><g><path d="M58.742,32.084a11.7,11.7,0,0,0-8.215-4.047A7,7,0,0,0,54,22a1,1,0,0,0-1-1H47a5.006,5.006,0,0,0-5,5v3.982c-.026-.017-.055-.024-.08-.043A9.623,9.623,0,0,0,36.146,28a11.71,11.71,0,0,0-8.888,4.084,11.169,11.169,0,0,0-2.607,8.959,13.807,13.807,0,0,0,1.3,4.1l6.867,13.734a5.565,5.565,0,0,0,2.8,2.694,5.505,5.505,0,0,0,6.525-1.757L43,58.667l.745.993a5.732,5.732,0,0,0,3.15,2.175A5.59,5.59,0,0,0,48.244,62a5.446,5.446,0,0,0,4.887-3.026L60.048,45.14a1,1,0,1,0-1.789-.894L51.342,58.081a3.472,3.472,0,0,1-3.966,1.813,3.739,3.739,0,0,1-2.032-1.435L43.8,56.4a1,1,0,0,0-1.6,0l-1.658,2.211a3.507,3.507,0,0,1-4.159,1.11,3.571,3.571,0,0,1-1.775-1.742L27.741,44.246a11.777,11.777,0,0,1-1.113-3.5,9.05,9.05,0,0,1,2.146-7.354A9.714,9.714,0,0,1,36.146,30a7.637,7.637,0,0,1,4.6,1.558,3.762,3.762,0,0,0,4.544-.024A7.607,7.607,0,0,1,49.854,30a9.714,9.714,0,0,1,7.372,3.388,9.05,9.05,0,0,1,2.146,7.354,1,1,0,0,0,1.977.3A11.169,11.169,0,0,0,58.742,32.084ZM44,26a3,3,0,0,1,3-3h4.9A5.008,5.008,0,0,1,47,27H44Zm.048,3.964c-.015.011-.033.014-.048.025V29h1.623A9.745,9.745,0,0,0,44.048,29.964Z"/><path d="M56.255,41.279a.983.983,0,0,0,.152.012,1,1,0,0,0,.988-.85,7.081,7.081,0,0,0-1.687-5.75A7.713,7.713,0,0,0,49.854,32a1,1,0,0,0,0,2,5.716,5.716,0,0,1,4.338,1.995,5.107,5.107,0,0,1,1.225,4.145A1,1,0,0,0,56.255,41.279Z"/><circle cx="37" cy="55" r="1"/><circle cx="35" cy="52" r="1"/><path d="M31,60H7a3,3,0,0,1-3-3V7A3,3,0,0,1,7,4H45a3,3,0,0,1,3,3V18a1,1,0,0,0,2,0V7a5.006,5.006,0,0,0-5-5H7A5.006,5.006,0,0,0,2,7V57a5.006,5.006,0,0,0,5,5H31a1,1,0,0,0,0-2Z"/><path d="M44,19.379a1,1,0,0,0,1-1V8a1,1,0,0,0-1-1H8A1,1,0,0,0,7,8V26a1,1,0,0,0,1,1H39a1,1,0,0,0,0-2H9V9H43v9.379A1,1,0,0,0,44,19.379Z"/><path d="M15,30a1,1,0,0,0-1-1H8a1,1,0,0,0-1,1v6a1,1,0,0,0,1,1h6a1,1,0,0,0,1-1Zm-2,5H9V31h4Z"/><path d="M26,31V30a1,1,0,0,0-1-1H19a1,1,0,0,0-1,1v6a1,1,0,0,0,1,1h3a1,1,0,0,0,0-2H20V31h4a1,1,0,0,0,2,0Z"/><path d="M15,40a1,1,0,0,0-1-1H8a1,1,0,0,0-1,1v6a1,1,0,0,0,1,1h6a1,1,0,0,0,1-1Zm-2,5H9V41h4Z"/><path d="M22,41a1,1,0,0,0,0-2H19a1,1,0,0,0-1,1v6a1,1,0,0,0,1,1h4a1,1,0,0,0,0-2H20V41Z"/><path d="M14,50H8a1,1,0,0,0-1,1v6a1,1,0,0,0,1,1h6a1,1,0,0,0,1-1V51A1,1,0,0,0,14,50Zm-1,6H9V52h4Z"/><path d="M18,57a1,1,0,0,0,1,1h6a1,1,0,0,0,1-1V51a1,1,0,0,0-1-1H19a1,1,0,0,0-1,1Zm2-5h4v4H20Z"/><path d="M18.707,14.293a1,1,0,0,0-1.414,0L15,16.586V13a1,1,0,0,0-2,0v8a1,1,0,0,0,2,0V19.414l2.293,2.293a1,1,0,0,0,1.414-1.414L16.414,18l2.293-2.293A1,1,0,0,0,18.707,14.293Z"/><path d="M25,16a1,1,0,0,0,2,0,2,2,0,0,0-2-2H23a2,2,0,0,0-2,2v4a2,2,0,0,0,2,2h2a2,2,0,0,0,2-2,1,1,0,0,0-2,0H23V16Z"/><path d="M30,17a2,2,0,0,0-2,2v1a2,2,0,0,0,2,2h1a2.981,2.981,0,0,0,2-.78A2.981,2.981,0,0,0,35,22a1,1,0,0,0,0-2,1,1,0,0,1-1-1V16a2,2,0,0,0-2-2H29a1,1,0,0,0,0,2h3v1Zm1,3H30V19h2A1,1,0,0,1,31,20Z"/><path d="M38,13v8a1,1,0,0,0,2,0V13a1,1,0,0,0-2,0Z"/></g></g></svg>