<svg height="512" viewBox="0 0 60 60" width="512" xmlns="http://www.w3.org/2000/svg"><g id="Page-1" fill="none" fill-rule="evenodd"><g id="033---Pollution" fill="rgb(0,0,0)" fill-rule="nonzero" transform="translate(-1)"><path id="Shape" d="m29.117 19.031c-.5351626-.1364055-1.0795785.1868414-1.216.722-.2696023 1.0402157-1.0749818 1.856786-2.1113784 2.1407162-1.0363966.2839301-2.1455009-.0081502-2.9076216-.7657162-.5637895-.5648207-.8809165-1.3299525-.882-2.128v-5c-.0013899-1.210596.7249687-2.303398 1.841691-2.7708122 1.1167222-.4674143 2.4049469-.2178346 3.266309.6328122.1886661.1919486.3522978.4069882.487.64.134805.2317946.2358243.4816491.3.742.1347575.5357162.6782838.8607575 1.214.726s.8607575-.6782838.726-1.214c-.1106435-.4381712-.2823227-.8586169-.51-1.249-.221436-.3819551-.49023-.7344112-.8-1.049-1.431797-1.42330433-3.5790694-1.84589561-5.4434241-1.07128631-1.8643547.77460931-3.0799467 2.59441651-3.0815759 4.61328631v5c.0058076 2.5139473 1.8773102 4.6326776 4.3713132 4.9487688 2.494003.3160913 4.8348991-1.2687574 5.4676868-3.7017688.1364055-.5351626-.1868414-1.0795785-.722-1.216z"/><path id="Shape" d="m42 14c0-2.7614237-2.2385763-5-5-5s-5 2.2385763-5 5v5c.0000001 2.7614237 2.2385763 4.9999999 5 4.9999999s4.9999999-2.2385762 5-4.9999999zm-2 5c0 1.6568542-1.3431458 3-3 3s-3-1.3431458-3-3v-5c0-1.6568542 1.3431458-3 3-3s3 1.3431458 3 3z"/><path id="Shape" d="m47 28h-1.087c2.278-1.986 1.953-3.644 1.549-4.463-.6184966-1.2356184-2.0506298-1.8294297-3.362-1.394-1.2355351.4099526-2.0774982 1.5554234-2.1 2.857 0 .5522847.4477153 1 1 1s1-.4477153 1-1c.023618-.4396736.3134442-.8202936.731-.96.3633367-.1153836.7572839.044802.937.381.355.721-.58 1.66-1.169 2.157-.491.413-2.084 1.61-2.1 1.623-.3436205.2586103-.4834112.7079575-.3471412 1.1158604.1362699.407903.5180781.6829973.9481412.6831396h4c.5522847 0 1-.4477153 1-1s-.4477153-1-1-1z"/><path id="Shape" d="m30.53 55c0 .5522847.4477153 1 1 1 3.165 0 5.786-1.09 7.191-2.992 1.1575058-1.6489539 1.5575832-3.7129892 1.1-5.675-.1303119-.5329778-.6657368-.8614177-1.1998968-.7360396-.53416.125378-.8675367.6577431-.7471032 1.1930396.3228862 1.3903963.0483159 2.852474-.757 4.031-1.028 1.385-3.063 2.179-5.587 2.179-.5522847 0-1 .4477153-1 1z"/><path id="Shape" d="m52.013 12.344c-.9569418-4.44039524-4.0263173-8.13143367-8.2177285-9.8821249-4.1914112-1.75069122-8.974264-1.33941386-12.8052715 1.1011249-3.4367943-3.46479187-8.6243941-4.51385925-13.1374195-2.65672736-4.5130255 1.85713189-7.4597899 6.25352962-7.4625805 11.13372736v.209c-5.98525496 1.3496963-9.99898131 6.9833473-9.31976359 13.0811846.67921773 6.0978374 5.83421497 10.7102149 11.96976359 10.7098154h11.76c-.29647 1.1080015-.2829795 2.2761408.039 3.377.2207714.6694914.5262489 1.3080032.909 1.9.3417756.5009982.5973043 1.0556578.756 1.641.114002.4543686-.0094026.9355716-.328 1.279-.4351565.4121807-1.0489406.5769095-1.632.438-.5575979-.1472437-1.0558126-.4637812-1.426-.906l-2.095-2.369c-.2433479-.276433-.6189419-.3967365-.9776109-.3131306-.3586689.0836058-.642355.3575876-.7383891.7131306l-.839 3.1c-1.0900603 3.5997432-.3830963 7.5040447 1.9 10.493 1.7992975 2.0109963 4.1689985 3.425561 6.793 4.055 1.4272096.3676029 2.8952096.5530769 4.369.552 4.448 0 8.242-1.684 10.413-4.621 1.8563676-2.6008368 2.4970411-5.8774968 1.757-8.986-.5159583-2.0858424-1.3961346-4.064208-2.6-5.844-1.1664542-1.6582569-2.5260037-3.1718887-4.05-4.509h11.91c6.0622018.0064401 11.1845592-4.4935656 11.9590839-10.5060895s-3.0401608-11.6637866-8.9060839-13.1939105zm-12.581 29.313c1.0753222 1.5829353 1.8627399 3.3432845 2.326 5.2.6071964 2.5366872.0875904 5.2120201-1.425 7.337-1.788 2.42-5 3.808-8.8 3.808-1.3021323.0003125-2.5990808-.1639901-3.86-.489-2.2253704-.5272624-4.2383786-1.7173537-5.773-3.413-1.8619-2.4862418-2.4196506-5.7141308-1.5-8.681l.353-1.306.86.976c.6429659.7539479 1.5049381 1.2887481 2.466 1.53 1.2669485.2950525 2.5968285-.0775855 3.526-.988.7806058-.8154714 1.1015186-1.9673796.855-3.069-.1969125-.814052-.535397-1.5871506-1-2.284-.2908225-.4441784-.5259201-.9224341-.7-1.424-.461-1.572.035-3.3 1.473-5.128.6374195-.7735474 1.3231213-1.5060092 2.053-2.193.334-.33.626-.618.912-.913l1.174-1.213.044 1.777c.008.278.026.552.054.822.1808761 1.8067062 1.0265998 3.4817595 2.373 4.7l.587.553c1.5019273 1.3039119 2.8451673 2.7800662 4.002 4.398zm9.528-7.617h-13.728c-.4301672-.6775522-.6971752-1.4457138-.78-2.244-.023-.218-.037-.441-.044-.664l-.1-4.157c-.0099619-.4027445-.2606268-.7601812-.6358878-.906747-.375261-.1465659-.8018261-.0536352-1.0821122.235747l-2.833 2.925c-.275.285-.558.563-.923.924-.7755867.7313121-1.5027882 1.5122938-2.177 2.338-.3841315.4884402-.7291984 1.0063749-1.032 1.549h-12.585c-5.26136558-.0037514-9.62819747-4.0670605-10.01031412-9.3145331-.38211664-5.2474726 3.34999587-9.9005402 8.55531412-10.6664669.5241695-.0769011.8974042-.5492557.851-1.077-.027-.311-.046-.622-.046-.942.0022379-4.20691616 2.625755-7.96679544 6.5734502-9.42070433 3.9476953-1.4539089 8.3832028-.2938197 11.1135498 2.90670433.3398744.4013119.9325082.47080214 1.356.159 3.327972-2.43814569 7.6830838-2.97379596 11.5026836-1.41475483s6.5559848 4.98921855 7.2273164 9.05975483c.0666833.4109156.380958.7375381.789.82 5.0563858 1.0243692 8.5146251 5.7125826 8.0005083 10.8460078-.5141168 5.1334251-4.8334029 9.0427129-9.9925083 9.0439922z"/><path id="Shape" d="m11.873 16.036c-3.94093396.5974991-6.85838316 3.9780557-6.873 7.964 0 .5522847.44771525 1 1 1s1-.4477153 1-1c.01147941-2.9933969 2.20244903-5.5319845 5.162-5.981.3544003-.0506391.6546938-.2868674.7873562-.6193798.1326624-.3325125.0774525-.7105758-.1447578-.9912651-.2222103-.2806892-.577517-.4211779-.9315984-.3683551z"/></g></g></svg>