<?xml version="1.0" encoding="UTF-8"?>
<svg width="512px" height="512px" viewBox="0 0 512 512" version="1.1" xmlns="http://www.w3.org/2000/svg" xmlns:xlink="http://www.w3.org/1999/xlink">
    <!-- Generator: Sketch 58 (84663) - https://sketch.com -->
    <title>recipies</title>
    <desc>Created with Sketch.</desc>
    <g id="Page-1" stroke="none" stroke-width="1" fill="none" fill-rule="evenodd">
        <g id="recipies" fill="#000000" fill-rule="nonzero">
            <g id="Group">
                <circle id="Oval" cx="409.014" cy="353.785" r="10"></circle>
                <path d="M504.26,96.114 C499.3,84.393 492.21,73.872 483.17,64.833 C474.14,55.804 463.609,48.707 451.89,43.752 C439.76,38.617 426.88,36.014 413.59,36.014 L413.569,36.014 C405.269,36.014 397.009,37.055 389.019,39.107 C381.28,41.099 373.79,44.042 366.749,47.856 C341.05,17.447 303.479,0 263.689,0 C252.819,0 242.019,1.291 231.559,3.853 C221.399,6.336 211.519,10.019 202.2,14.804 C193.05,19.499 184.41,25.254 176.54,31.92 C168.72,38.547 161.64,46.074 155.519,54.272 C147.37,48.456 138.429,43.942 128.929,40.849 C119.099,37.635 108.839,36.014 98.429,36.014 L98.409,36.014 C85.119,36.014 72.239,38.617 60.108,43.752 C48.388,48.707 37.858,55.804 28.829,64.833 C19.789,73.872 12.688,84.392 7.739,96.114 C2.609,108.245 -5.24025268e-14,121.138 -5.24025268e-14,134.431 C-5.24025268e-14,159.936 9.729,184.129 27.37,202.528 C35.96,211.486 46,218.654 57.22,223.829 C68.781,229.164 81.12,232.157 93.9,232.738 L113.241,502.702 C113.421,505.245 114.541,507.587 116.4,509.318 C118.251,511.05 120.671,512.001 123.211,512.001 L398.4,512.001 C400.94,512.001 403.36,511.05 405.211,509.318 C407.07,507.586 408.19,505.244 408.371,502.702 L415.77,399.421 C415.96,396.748 415.1,394.176 413.35,392.154 C411.6,390.132 409.17,388.911 406.51,388.72 C406.27,388.7 406.02,388.69 405.781,388.69 C400.57,388.69 396.201,392.774 395.82,397.979 L395.82,397.989 L392.026,450.983 L332.264,450.983 L334.577,417.869 C334.963,412.354 330.808,407.571 325.299,407.185 C319.792,406.794 315.011,410.957 314.626,416.472 L312.215,450.983 L208.987,450.983 L206.576,416.472 C206.191,410.958 201.419,406.796 195.903,407.185 C190.393,407.571 186.239,412.354 186.625,417.869 L188.938,450.983 L130,450.983 C129.86,450.983 129.723,450.998 129.584,451.004 L113.86,231.484 C123.953,229.699 134.238,226.221 143.633,221.35 C148.537,218.807 150.454,212.767 147.914,207.858 C145.374,202.951 139.343,201.031 134.435,203.573 C124.315,208.82 113.019,212.06 102.603,212.712 C101.161,212.779 99.756,212.819 98.41,212.819 C77.47,212.819 57.78,204.661 42.96,189.857 C28.16,175.031 20,155.351 20,134.431 C20,113.5 28.16,93.811 42.96,78.997 C57.78,64.193 77.47,56.035 98.41,56.035 C115.205,56.035 131.413,61.405 144.824,71.266 C141.222,77.772 138.434,83.832 136.4,89.608 C134.565,94.822 137.299,100.539 142.508,102.376 C143.607,102.764 144.729,102.948 145.831,102.948 C149.954,102.948 153.814,100.376 155.263,96.262 C157.618,89.571 166.943,73.045 167.126,72.633 C188.457,39.656 224.408,20.02 263.688,20.02 C300.237,20.02 333.691,36.783 355.645,66.039 C355.739,66.182 368.389,85.943 371.799,95.379 C373.271,99.453 377.111,101.987 381.203,101.987 C382.332,101.987 383.48,101.794 384.603,101.387 C389.796,99.507 392.484,93.768 390.605,88.569 C387.7,80.529 383.658,72.394 378.579,64.279 C389.396,58.87 401.323,56.035 413.588,56.035 C434.528,56.035 454.218,64.193 469.038,78.997 C483.838,93.811 491.988,113.5 491.998,134.431 C492.018,176.092 459.448,210.475 417.857,212.708 C417.59,212.722 414.461,212.708 412.998,212.708 C399.764,212.708 387.316,209.294 374.944,202.269 C370.142,199.542 364.037,201.229 361.312,206.037 C358.587,210.845 360.273,216.955 365.077,219.682 C378.679,227.405 392.98,231.721 407.66,232.564 L402.248,308.13 C401.857,313.635 406.008,318.43 411.508,318.831 C411.748,318.851 411.988,318.861 412.228,318.861 L412.239,318.861 C417.449,318.861 421.829,314.777 422.199,309.562 L427.768,231.816 C450.949,228.473 472.248,216.871 487.728,199.134 C495.398,190.365 501.378,180.426 505.529,169.585 C509.818,158.374 511.999,146.542 511.999,134.431 C511.999,121.138 509.39,108.245 504.26,96.114 Z M390.592,471.001 L389.09,491.98 L132.52,491.98 L131.017,471.001 L390.592,471.001 Z" id="Shape"></path>
            </g>
        </g>
    </g>
</svg>